<?xml version="1.0" encoding="utf-8"?>
<!-- Generator: Adobe Illustrator 24.0.2, SVG Export Plug-In . SVG Version: 6.00 Build 0)  -->
<svg version="1.1" id="Layer_1" xmlns="http://www.w3.org/2000/svg" xmlns:xlink="http://www.w3.org/1999/xlink" x="0px" y="0px"
	 viewBox="0 0 1000 1000" style="enable-background:new 0 0 1000 1000;" xml:space="preserve">
<style type="text/css">
	.st0{fill:#FFFFFF;}
</style>
<g>
	<g>
		<path class="st0" d="M969.21,389.72l-17.6,20.23c-1.48,1.84-3.38,3.45-5.69,4.83c-2.32,1.38-5.51,2.07-9.58,2.07
			c-2.78,0-5.65-0.65-8.61-1.95c-2.96-1.3-6.2-2.91-9.72-4.83c-3.52-1.91-7.59-4.02-12.21-6.32c-4.63-2.3-9.99-4.4-16.1-6.32
			c-6.11-1.91-13.19-3.52-21.24-4.83c-8.05-1.3-17.35-1.95-27.9-1.95c-17.95,0-34.38,2.64-49.28,7.93
			c-14.9,5.29-27.72,12.95-38.45,22.98c-10.74,10.04-19.06,22.29-24.99,36.77c-5.93,14.48-8.88,30.99-8.88,49.52
			c0,18.69,3.19,35.31,9.58,49.87c6.39,14.56,15.04,26.81,25.96,36.77c10.92,9.96,23.78,17.58,38.59,22.87
			c14.8,5.29,30.72,7.93,47.75,7.93c10.18,0,19.39-0.46,27.62-1.38c8.23-0.92,15.82-2.37,22.76-4.37c6.94-1.99,13.51-4.56,19.71-7.7
			c6.2-3.14,12.35-7.01,18.46-11.61c1.85-1.38,3.79-2.49,5.83-3.33c2.04-0.84,4.17-1.26,6.39-1.26c4.07,0,7.68,1.3,10.83,3.91
			l15.92,14.3c8.82-36.51,13.5-74.63,13.5-113.84C981.87,462.06,977.49,425.14,969.21,389.72z M217.6,341.7l113.91,240.05
			c-4.12-12.88-6.19-26.55-6.19-41.03V341.7h74.68v198.79c0,12.72,2.08,24.21,6.25,34.47c4.16,10.27,10.18,19.04,18.04,26.31
			c7.86,7.28,17.49,12.91,28.87,16.89c11.38,3.99,24.29,5.97,38.73,5.97s27.35-1.99,38.73-5.97c11.38-3.98,20.96-9.57,28.73-16.78
			c7.77-7.2,13.74-15.93,17.91-26.2c4.16-10.26,6.25-21.75,6.25-34.47V341.7h74.68v95.23c9.54-19.77,22.73-36.88,39.56-51.34
			c17.49-15.01,38.35-26.69,62.6-35.05c24.24-8.35,51.08-12.52,80.51-12.52c29.24,0,55.2,3.99,77.87,11.95
			c17.37,6.11,32.76,13.66,46.17,22.64C909,167.74,721.59,17.13,499,17.13C232.32,17.13,16.13,233.32,16.13,500
			c0,30.22,2.79,59.79,8.1,88.47l117.3-246.77H217.6z M836.13,677.68c-29.8,0-56.59-4.21-80.37-12.64
			c-23.78-8.42-44.1-20.14-60.94-35.16c-16.84-15.01-29.75-32.94-38.73-53.78c-0.52-1.21-1.02-2.43-1.52-3.65
			c-1.89,7.98-4.53,15.67-7.92,23.07c-7.68,16.78-18.7,31.25-33.04,43.43c-14.35,12.18-31.79,21.68-52.33,28.5
			c-20.54,6.82-43.68,10.23-69.4,10.23c-25.91,0-49.14-3.41-69.68-10.23c-20.54-6.82-37.99-16.32-52.33-28.5
			c-9.55-8.11-17.62-17.25-24.22-27.4l29.63,62.44h-57.74c-6.48,0-11.76-1.34-15.82-4.02c-4.07-2.68-7.13-6.01-9.16-10l-29.98-67.79
			H96.28L66.3,659.99c-1.48,3.53-4.35,6.74-8.61,9.65c-2.74,1.87-5.89,3.13-9.47,3.8C117.91,854.43,293.45,982.87,499,982.87
			c216.3,0,399.39-142.23,460.84-338.26c-11.4,7.93-24.08,14.52-38.07,19.75C897.99,673.24,869.44,677.68,836.13,677.68z
			 M187.06,420.52c-2.59-6.74-5.18-14.02-7.77-21.83c-2.41,7.81-4.91,15.13-7.5,21.95c-2.59,6.82-5.09,12.75-7.5,17.81
			l-48.58,110.08h127.7l-48.86-110.54C192.15,433.09,189.65,427.27,187.06,420.52z"/>
	</g>
</g>
</svg>
