<?xml version="1.0" encoding="utf-8"?>
<!-- Generator: Adobe Illustrator 24.0.2, SVG Export Plug-In . SVG Version: 6.00 Build 0)  -->
<svg version="1.1" id="Layer_1" xmlns="http://www.w3.org/2000/svg" xmlns:xlink="http://www.w3.org/1999/xlink" x="0px" y="0px"
	 viewBox="0 0 1000 1000" style="enable-background:new 0 0 1000 1000;" xml:space="preserve">
<style type="text/css">
	.st0{fill:#FFFFFF;}
</style>
<g>
	<g>
		<path class="st0" d="M974.05,407.69v184.62c5.78-29.88,8.82-60.74,8.82-92.31C982.87,468.43,979.84,437.57,974.05,407.69z
			 M555.52,445.01c-10.04-9.3-22.25-16.41-36.62-21.34c-14.38-4.93-30.59-7.39-48.62-7.39c-18.04,0-34.24,2.47-48.62,7.39
			c-14.38,4.93-26.63,12.04-36.75,21.34c-10.12,9.3-17.91,20.6-23.35,33.91c-5.45,13.31-8.17,28.34-8.17,45.1
			c0,16.76,2.72,31.79,8.17,45.1c5.44,13.31,13.23,24.58,23.35,33.8c10.12,9.23,22.37,16.3,36.75,21.23
			c14.38,4.93,30.58,7.39,48.62,7.39c18.03,0,34.24-2.46,48.62-7.39c14.38-4.93,26.58-12.01,36.62-21.23
			c10.04-9.22,17.78-20.49,23.22-33.8c5.44-13.31,8.17-28.34,8.17-45.1c0-16.76-2.72-31.79-8.17-45.1
			C573.29,465.6,565.55,454.3,555.52,445.01z M965.51,371.28C909.18,167.09,722.1,17.13,500,17.13
			c-256.64,0-466.52,200.22-481.95,452.98c1.17-3.1,2.44-6.15,3.83-9.15c8.84-19.08,21.31-35.52,37.39-49.33
			c16.08-13.8,35.26-24.54,57.55-32.22c22.29-7.67,46.96-11.51,74.01-11.51c26.88,0,50.74,3.66,71.58,10.99
			c20.84,7.32,38.58,16.9,53.21,28.73l-22.97,26.41c-1.36,1.69-3.11,3.17-5.23,4.44c-2.13,1.27-5.06,1.9-8.8,1.9
			c-2.55,0-5.19-0.6-7.91-1.8c-2.72-1.19-5.7-2.67-8.93-4.44c-3.23-1.76-6.98-3.7-11.23-5.81c-4.25-2.11-9.19-4.05-14.8-5.81
			c-5.61-1.76-12.12-3.24-19.52-4.44c-7.4-1.19-15.95-1.8-25.65-1.8c-16.5,0-31.61,2.43-45.3,7.29
			c-13.7,4.86-25.48,11.9-35.35,21.13c-9.87,9.23-17.53,20.49-22.97,33.8c-5.45,13.31-8.17,28.49-8.17,45.53
			c0,17.18,2.93,32.46,8.8,45.84c5.87,13.38,13.82,24.65,23.86,33.8c10.04,9.16,21.86,16.16,35.47,21.02
			c13.61,4.86,28.24,7.29,43.9,7.29c9.35,0,17.82-0.42,25.39-1.27c7.57-0.85,14.55-2.18,20.93-4.01c6.38-1.83,12.42-4.19,18.12-7.08
			c5.7-2.89,11.36-6.44,16.97-10.67c1.7-1.27,3.48-2.29,5.36-3.06c1.87-0.77,3.83-1.16,5.87-1.16c3.74,0,7.06,1.2,9.95,3.59
			l27.05,24.29c-14.97,15.35-33.39,27.11-55.25,35.28c-21.86,8.17-48.11,12.25-78.73,12.25c-27.4,0-52.02-3.87-73.88-11.62
			c-21.86-7.74-40.54-18.52-56.02-32.32c-11.79-10.51-21.48-22.58-29.08-36.2C73.56,818.69,267.6,982.87,500,982.87
			c204.29,0,378.95-126.87,449.49-306.11h-10.66c-5.45,0-10-0.74-13.65-2.22c-3.66-1.48-7.19-3.98-10.59-7.5L721.91,463.39
			c1.02,9.3,1.53,17.89,1.53,25.77v187.6h-60.48V371.28h35.98c2.89,0,5.4,0.11,7.53,0.32c2.13,0.21,4,0.63,5.61,1.27
			c1.62,0.63,3.19,1.55,4.72,2.75c1.53,1.2,3.23,2.78,5.1,4.75l193.45,204.5c-0.51-4.93-0.94-9.79-1.28-14.58
			c-0.34-4.79-0.51-9.22-0.51-13.31V371.28H965.51z M643.69,586.23c-8.93,19.09-21.56,35.6-37.9,49.54
			c-16.33,13.94-35.98,24.82-58.95,32.64c-22.97,7.82-48.49,11.72-76.56,11.72c-27.91,0-53.34-3.91-76.31-11.72
			s-42.66-18.7-59.08-32.64c-16.42-13.94-29.14-30.45-38.15-49.54c-9.02-19.08-13.53-39.82-13.53-62.21
			c0-22.39,4.51-43.13,13.53-62.22c9.02-19.08,21.73-35.6,38.15-49.54c16.42-13.94,36.11-24.82,59.08-32.64s48.4-11.72,76.31-11.72
			c18.71,0,36.32,1.8,52.83,5.39c16.5,3.59,31.64,8.66,45.43,15.21c13.78,6.55,26.16,14.51,37.13,23.87
			c10.97,9.37,20.29,19.83,27.95,31.37c7.65,11.55,13.48,24.08,17.48,37.6c4,13.52,6,27.75,6,42.67
			C657.09,546.41,652.62,567.15,643.69,586.23z"/>
	</g>
</g>
</svg>
