<?xml version="1.0" encoding="utf-8"?>
<!-- Generator: Adobe Illustrator 24.0.2, SVG Export Plug-In . SVG Version: 6.00 Build 0)  -->
<svg version="1.1" id="Layer_1" xmlns="http://www.w3.org/2000/svg" xmlns:xlink="http://www.w3.org/1999/xlink" x="0px" y="0px"
	 viewBox="0 0 1000 1000" style="enable-background:new 0 0 1000 1000;" xml:space="preserve">
<style type="text/css">
	.st0{fill:#1F448F;}
</style>
<g>
	<g>
		<path class="st0" d="M972.01,397.71v204.58c7.11-32.97,10.86-67.19,10.86-102.29S979.12,430.68,972.01,397.71z M500,17.13
			c-252.9,0-460.38,194.42-481.15,441.95c1.02-2.59,2.12-5.15,3.29-7.68c9.3-20.07,22.41-37.36,39.32-51.88
			c16.91-14.51,37.08-25.81,60.52-33.88c23.44-8.07,49.39-12.11,77.84-12.11c28.27,0,53.36,3.85,75.29,11.55
			c21.92,7.7,40.57,17.77,55.96,30.22l-1.19,1.37c16.37-12.98,35.65-23.26,57.83-30.81c24.16-8.22,50.9-12.33,80.25-12.33
			c19.68,0,38.2,1.89,55.56,5.67c17.35,3.78,33.28,9.11,47.78,16c14.49,6.89,27.51,15.26,39.05,25.11
			c11.54,9.85,21.34,20.85,29.39,32.99c1.8,2.72,3.49,5.49,5.1,8.31v-84.52h37.84c3.04,0,5.68,0.11,7.92,0.33
			c2.24,0.22,4.2,0.67,5.91,1.33c1.7,0.67,3.35,1.63,4.96,2.89c1.61,1.26,3.4,2.93,5.37,5l203.45,215.07
			c-0.54-5.18-0.99-10.29-1.34-15.33c-0.36-5.03-0.54-9.7-0.54-14V357.09h52.97C900.44,160.18,716.93,17.13,500,17.13z
			 M920.61,676.02c-3.85-1.55-7.56-4.18-11.14-7.89L706.83,453.96c1.07,9.78,1.61,18.81,1.61,27.11v197.29h-63.61v-84.55
			c-8.85,15.63-20.29,29.44-34.35,41.44c-17.18,14.66-37.84,26.11-62,34.33c-24.16,8.22-51,12.33-80.52,12.33
			c-29.35,0-56.1-4.11-80.25-12.33c-22.39-7.62-41.82-18.02-58.3-31.18c-14.43,13.01-31.54,23.22-51.35,30.62
			c-22.99,8.59-50.59,12.89-82.8,12.89c-28.81,0-54.71-4.07-77.7-12.22c-22.99-8.14-42.63-19.48-58.91-33.99
			c-13.28-11.84-24.03-25.54-32.25-41.12c43.97,221.4,239.29,388.3,473.6,388.3c203.68,0,377.9-126.11,448.85-304.51h-13.88
			C929.24,678.36,924.46,677.58,920.61,676.02z M299.27,428.72c-1.94,0.68-4.31,1.02-7.12,1.02c-2.68,0-5.46-0.63-8.32-1.89
			c-2.86-1.26-6-2.81-9.39-4.67c-3.4-1.85-7.34-3.89-11.81-6.11c-4.47-2.22-9.66-4.26-15.57-6.11c-5.9-1.85-12.75-3.41-20.53-4.67
			c-7.78-1.26-16.77-1.89-26.97-1.89c-17.36,0-33.24,2.56-47.64,7.67c-14.41,5.11-26.8,12.52-37.17,22.22
			c-10.38,9.7-18.43,21.55-24.16,35.55c-5.73,14-8.59,29.96-8.59,47.88c0,18.07,3.09,34.14,9.26,48.21
			c6.17,14.07,14.54,25.92,25.1,35.55c10.56,9.63,22.99,17,37.31,22.11c14.31,5.11,29.7,7.67,46.16,7.67
			c9.84,0,18.74-0.44,26.71-1.33c7.96-0.89,15.3-2.29,22.01-4.22c6.71-1.92,13.06-4.41,19.06-7.44c5.99-3.03,11.94-6.78,17.85-11.22
			c1.79-1.33,3.67-2.41,5.64-3.22c1.72-0.71,3.51-1.09,5.37-1.18c-4.11-6.18-7.79-12.67-11-19.48
			c-9.49-20.07-14.23-41.88-14.23-65.43c0-23.55,4.74-45.36,14.23-65.43C289.38,443.97,293.99,436.11,299.27,428.72z M378.18,600.71
			c10.64,9.7,23.53,17.15,38.65,22.33c15.12,5.19,32.16,7.78,51.13,7.78c18.96,0,36.01-2.59,51.13-7.78
			c15.12-5.18,27.96-12.63,38.51-22.33c10.56-9.7,18.7-21.55,24.42-35.55c5.72-14,8.59-29.81,8.59-47.43
			c0-17.63-2.86-33.44-8.59-47.44c-5.73-14-13.87-25.88-24.42-35.66c-10.56-9.78-23.4-17.25-38.51-22.44
			c-15.12-5.18-32.17-7.78-51.13-7.78c-18.97,0-36.01,2.59-51.13,7.78c-15.12,5.19-28.01,12.66-38.65,22.44
			c-10.65,9.78-18.83,21.66-24.56,35.66c-5.73,14-8.59,29.81-8.59,47.44c0,17.63,2.86,33.44,8.59,47.43
			C359.34,579.15,367.53,591.01,378.18,600.71z"/>
	</g>
</g>
</svg>
