<svg height="496pt" viewBox="0 0 496 496" width="496pt" xmlns="http://www.w3.org/2000/svg"><path d="m368 320c0-17.648438-14.351562-32-32-32h-120v-39.28125c0-12.167969-2.878906-24.359375-8.320312-35.246094-6.625-13.25-19.925782-21.472656-34.734376-21.472656h-12.945312c-4.414062 0-8 3.574219-8 8v92.6875l-11.3125 11.3125h-44.6875v-8c0-4.425781-3.585938-8-8-8h-80c-4.414062 0-8 3.574219-8 8v192c0 4.425781 3.585938 8 8 8h80c4.414062 0 8-3.574219 8-8v-8h38.113281l30.3125 15.160156c1.101563.550782 2.335938.839844 3.574219.839844h152c17.648438 0 32-14.351562 32-32 0-6.632812-2.03125-12.800781-5.496094-17.910156 12.472656-4.378906 21.496094-16.136719 21.496094-30.089844 0-9.609375-4.335938-18.128906-11.054688-24 6.71875-5.871094 11.054688-14.390625 11.054688-24s-4.335938-18.128906-11.054688-24c6.71875-5.871094 11.054688-14.390625 11.054688-24zm-288 160h-64v-176h64zm256-128c8.824219 0 16 7.175781 16 16s-7.175781 16-16 16h-48v16h48c8.824219 0 16 7.175781 16 16s-7.175781 16-16 16h-48v16h32c8.824219 0 16 7.175781 16 16s-7.175781 16-16 16h-150.113281l-30.3125-15.160156c-1.101563-.550782-2.335938-.839844-3.574219-.839844h-40v-144h48c2.121094 0 4.160156-.839844 5.65625-2.34375l16-16c1.503906-1.496094 2.34375-3.527344 2.34375-5.65625v-88h4.945312c8.703126 0 16.527344 4.832031 20.421876 12.625 4.335937 8.679688 6.632812 18.390625 6.632812 28.09375v47.28125c0 4.425781 3.585938 8 8 8h128c8.824219 0 16 7.175781 16 16s-7.175781 16-16 16h-48v16zm0 0"/><path d="m40 448h16v16h-16zm0 0"/><path d="m40 320h16v16h-16zm0 0"/><path d="m368 0c-70.574219 0-128 57.425781-128 128s57.425781 128 128 128h52.6875l61.65625 61.65625c1.527344 1.527344 3.578125 2.34375 5.65625 2.34375 1.03125 0 2.070312-.191406 3.0625-.609375 2.984375-1.230469 4.9375-4.160156 4.9375-7.390625v-184c0-70.574219-57.425781-128-128-128zm112 292.6875-50.34375-50.34375c-1.496094-1.503906-3.535156-2.34375-5.65625-2.34375h-56c-61.761719 0-112-50.238281-112-112s50.238281-112 112-112 112 50.238281 112 112zm0 0"/><path d="m272 120h192v16h-192zm0 0"/><path d="m272 152h192v16h-192zm0 0"/><path d="m288 88h176v16h-176zm0 0"/></svg>