<?xml version="1.0" encoding="utf-8"?>
<!-- Generator: Adobe Illustrator 24.0.2, SVG Export Plug-In . SVG Version: 6.00 Build 0)  -->
<svg version="1.1" id="Layer_1" xmlns="http://www.w3.org/2000/svg" xmlns:xlink="http://www.w3.org/1999/xlink" x="0px" y="0px"
	 viewBox="0 0 1000 1000" style="enable-background:new 0 0 1000 1000;" xml:space="preserve">
<style type="text/css">
	.st0{fill:#FDFEFE;}
</style>
<g>
	<g>
		<path class="st0" d="M60.26,701.94V298.06C31.94,359.51,16.13,427.91,16.13,500S31.94,640.49,60.26,701.94z M949.86,326.77v346.46
			c20.67-53.77,32.01-112.18,32.01-173.23S970.53,380.54,949.86,326.77z M307.77,488.59c15.15-3.61,27.75-8.79,37.81-15.52
			c10.05-6.74,17.56-14.94,22.52-24.6s7.44-20.45,7.44-32.36c0-11.32-2.48-21.57-7.44-30.75c-4.96-9.17-12.4-16.98-22.31-23.43
			c-9.92-6.44-22.45-11.37-37.6-14.79c-15.15-3.41-33.06-5.13-53.72-5.13h-83.05v151.98h83.05
			C274.85,494.01,292.62,492.2,307.77,488.59z M838.29,281.11h91.22C849.7,124.44,686.89,17.13,499,17.13S148.3,124.44,68.48,281.11
			h185.98c39.94,0,74.51,3.32,103.71,9.96c29.19,6.64,53.3,15.91,72.31,27.82c15.87,9.94,28.31,21.52,37.36,34.73
			c0.15-0.25,0.29-0.51,0.43-0.76c8.68-14.64,21.28-27.62,37.81-38.95c16.53-11.32,36.91-20.4,61.15-27.23
			c24.24-6.83,52.06-10.25,83.47-10.25c35.26,0,67.76,3.91,97.51,11.71c29.75,7.81,55.09,18.74,76.03,32.8l-27.68,37.19
			c-3.31,4.1-6.82,7.08-10.54,8.93c-3.72,1.86-8.33,2.78-13.84,2.78c-5.78,0-12.05-1.51-18.8-4.54c-6.75-3.02-14.81-6.39-24.17-10.1
			c-9.37-3.71-20.32-7.07-32.85-10.1c-12.54-3.02-27.34-4.54-44.42-4.54c-15.43,0-28.92,1.32-40.49,3.95
			c-11.57,2.64-21.28,6.3-29.13,10.98s-13.71,10.3-17.56,16.84c-3.86,6.54-5.79,13.72-5.79,21.52c0,9.96,3.93,18.26,11.78,24.89
			c7.85,6.64,18.25,12.3,31.2,16.98c12.94,4.69,27.68,8.89,44.21,12.59c16.53,3.71,33.47,7.66,50.82,11.86
			c17.35,4.2,34.29,9.08,50.82,14.64c16.53,5.56,31.26,12.59,44.21,21.08c12.94,8.49,23.34,18.89,31.2,31.19
			c7.85,12.3,11.78,27.23,11.78,44.8c0,19.14-4.62,37.04-13.84,53.74c-9.23,16.69-22.73,31.24-40.49,43.63
			c-17.77,12.4-39.46,22.16-65.08,29.28s-54.96,10.69-88.01,10.69c-19.01,0-37.74-1.32-56.2-3.95c-18.46-2.64-36.15-6.39-53.1-11.27
			c-16.94-4.88-32.85-10.73-47.72-17.57c-14.88-6.83-28.1-14.45-39.67-22.84l32.64-37.78c2.75-2.73,6.33-5.02,10.74-6.88
			c4.4-1.85,9.09-2.78,14.05-2.78c6.88,0,14.32,2,22.31,6c7.99,4,17.49,8.45,28.51,13.32c11.01,4.88,23.89,9.33,38.63,13.32
			c14.73,4,32.44,6,53.1,6c31.67,0,56.19-5.32,73.55-15.96c17.35-10.64,26.03-25.92,26.03-45.83c0-11.13-3.93-20.21-11.78-27.23
			s-18.25-12.93-31.2-17.72c-12.95-4.78-27.68-8.83-44.21-12.15c-16.53-3.32-33.33-6.93-50.41-10.83
			c-17.08-3.9-33.88-8.59-50.41-14.06c-16.53-5.46-31.27-12.59-44.21-21.38c-7.78-5.28-14.64-11.36-20.57-18.22
			c-1.61,3.76-3.41,7.44-5.45,11.05c-9.65,17.09-24.11,31.77-43.39,44.07c-19.28,12.3-43.46,21.87-72.52,28.7
			c-29.07,6.84-63.01,10.25-101.85,10.25h-83.05v149.05H61.48C138.48,868.98,305.44,982.87,499,982.87s360.52-113.89,437.52-278.31
			h-98.23V281.11z"/>
	</g>
</g>
</svg>
