<svg xmlns="http://www.w3.org/2000/svg" xmlns:xlink="http://www.w3.org/1999/xlink" width="561.647" height="441.29" viewBox="0 0 561.647 441.29"><defs><style>.a{fill:#007bff;}.b{fill:url(#a);}.c{fill:url(#b);}.d{fill:url(#c);}.e{fill:url(#d);}.f{fill:url(#e);}.g{fill:#f4f4f4;}.h{fill:#fff;}.i{fill:url(#f);}.j{fill:url(#g);}.k{fill:url(#h);}.l{fill:#90c1fc;}.m{fill:#4372bd;stroke:#007bff;}.n{fill:#4e85de;}.o{fill:#72acfb;}.p{fill:url(#i);}.q{fill:url(#j);}.r{fill:url(#k);}.s{fill:url(#l);}.t{fill:url(#m);}.u{fill:url(#n);}.v{fill:#dcd0c8;}.w{fill:#6d6865;}.x{fill:#c6bbb5;}.y{fill:#948c87;}.z{fill:#a98e75;}.aa{fill:#ebb35c;}.ab{fill:#454971;}.ac{fill:#2e3048;}.ad{fill:#dba585;}.ae{fill:#3e4148;}.af{fill:#363957;}.ag{fill:#8c8581;}.ah{fill:#5d5955;}.ai{fill:#b9afaa;}.aj{fill:#b2a8a3;}.ak{fill:#f4f6ff;}.al{fill:#8c8480;}.am{fill:#dedfe6;}.an{fill:#4772b0;}.ao{fill:#5886c7;}.ap{fill:#dedede;}.aq{fill:#df655a;}.ar{fill:#bfd4fc;}.as{fill:url(#p);}.at{fill:url(#q);}.au{fill:url(#s);}.av{fill:url(#t);}.aw{fill:#558ad8;}.ax{fill:#3a3d5d;}.ay{fill:#42466c;}.az{fill:#e6d8d1;}.ba{fill:#cd7250;}.bb{fill:#997761;}.bc{fill:#c8bcb6;}.bd{fill:#cfc3bc;}.be{fill:#4c507d;}.bf{fill:#6d76ba;}.bg{fill:#f3e4dc;}.bh{fill:#2a2b41;}.bi{fill:#414469;}</style><linearGradient id="a" x1="-2.984" y1="2.988" x2="-3.53" y2="3.649" gradientUnits="objectBoundingBox"><stop offset="0" stop-color="#81d3e4"/><stop offset="1" stop-color="#6076fa"/></linearGradient><linearGradient id="b" x1="-123.878" y1="-3.535" x2="-122.842" y2="-3.535" gradientUnits="objectBoundingBox"><stop offset="0.01" stop-color="#4a612f"/><stop offset="1" stop-color="#769a42"/></linearGradient><linearGradient id="c" x1="-79.536" y1="48.219" x2="-79.536" y2="47.068" xlink:href="#b"/><linearGradient id="d" x1="-265.271" y1="-3.504" x2="-264.224" y2="-3.504" xlink:href="#b"/><linearGradient id="e" x1="-106.805" y1="40.809" x2="-106.805" y2="39.671" xlink:href="#b"/><linearGradient id="f" x1="1.491" y1="0.499" x2="-0.431" y2="0.499" gradientUnits="objectBoundingBox"><stop offset="0" stop-color="#eebe63"/><stop offset="1" stop-color="#dc3b57"/></linearGradient><linearGradient id="g" x1="1.38" y1="0.499" x2="-0.399" y2="0.499" xlink:href="#f"/><linearGradient id="h" x1="2.127" y1="0.499" x2="-0.614" y2="0.499" xlink:href="#f"/><linearGradient id="i" x1="0" y1="0.5" x2="1" y2="0.5" xlink:href="#a"/><linearGradient id="j" x1="0.001" y1="0.5" x2="1.001" y2="0.5" xlink:href="#a"/><linearGradient id="k" x1="0" y1="0.5" x2="1" y2="0.5" xlink:href="#a"/><linearGradient id="l" x1="0" y1="0.5" x2="1" y2="0.5" xlink:href="#a"/><linearGradient id="m" y1="0.5" x2="1" y2="0.5" gradientUnits="objectBoundingBox"><stop offset="0" stop-color="#e59148"/><stop offset="1" stop-color="#f1cc52"/></linearGradient><linearGradient id="n" y1="0.5" x2="1" y2="0.5" gradientUnits="objectBoundingBox"><stop offset="0" stop-color="#b37239"/><stop offset="1" stop-color="#f1cc52"/></linearGradient><linearGradient id="p" x1="0" y1="0.5" x2="1" y2="0.5" xlink:href="#a"/><linearGradient id="q" x1="0" y1="0.503" x2="1" y2="0.503" xlink:href="#a"/><linearGradient id="s" y1="0.5" x2="1" y2="0.5" gradientUnits="objectBoundingBox"><stop offset="0" stop-color="#d3d8de"/><stop offset="1" stop-color="#fff"/></linearGradient><linearGradient id="t" y1="0.502" x2="1" y2="0.502" gradientUnits="objectBoundingBox"><stop offset="0" stop-color="#72acfb"/><stop offset="1" stop-color="#5286d4"/></linearGradient></defs><path class="a" d="M91.887,303.528c49.373,9.312,72.913,45.658,101.86,70.089,34.043,28.807,75.506,12.846,110.922,7.76,63.641-9.132,85.279,57.914,155.308,49.063,67.026-8.5,93.189-92.458,51.516-140.539s-40.3-62.61-30.719-96.593,26.444-97.675-40.642-103.422c-57.644-4.936-91-19.345-116.379-44.387S204.882-48.492,161.276,56.242c-20.837,50.064-33.4,67.666-80.222,80.5s-79.542,48.182-81,88.2C-1.342,262.846,25.953,291.082,91.887,303.528Z" transform="translate(0 0)"/><path class="b" d="M303.1,40.469c-39.811,29.087-84.208,32.892-130.987,23.6S86.209,53.125,55.58,96.981,36.4,223.4,119.381,243.748c79.1,19.4,92.3,83.036,106.316,128.214,17.022,54.83,68.087,77.6,120.784,66.635s67.2-49.764,87.6-109.65,44.487-67.286,79.952-85.2c43.445-21.928,80.323-88.213.851-125.68C411.124,69.145,418.994-44.069,303.1,40.469Z" transform="translate(0.052 0.013)"/><path class="c" d="M168.9,126.884c7.009,15.38,11.014,29.928,5.817,36.427a9.011,9.011,0,0,1-1,1.051c-4.005,3.525-11.865,3.6-25.132-1.642-35.335-13.958-37.047-38.049-44.156-61.559-7.039-23.22-31.65-19.295-32.271-19.154C129.483,61.982,156.948,100.8,168.9,126.884Z" transform="translate(0.093 0.098)"/><path class="d" d="M174.657,163.284a9.013,9.013,0,0,1-1,1.051c-6.638-4.005-19.345-12.476-25.332-22.028a139.44,139.44,0,0,1-7.72-14.879c-4.756-10.1-9.682-20.556-18.273-28.566l1-1c8.791,8.2,13.768,18.774,18.584,29.037a139.181,139.181,0,0,0,7.64,14.729C155.352,150.878,168.189,159.389,174.657,163.284Z" transform="translate(0.157 0.125)"/><path class="e" d="M162.7,133.2c-.421,1-.691,1.6-.711,1.672-.11-.571-.22-1.131-.33-1.672-4.706-24.151-11.014-26.674-29.908-47.791-19.325-21.608-8.21-41.733-8.21-41.733C188.287,62.384,167.06,122.411,162.7,133.2Z" transform="translate(0.154 0.056)"/><path class="f" d="M162.68,133.172c-.421,1-.691,1.6-.711,1.672-.11-.571-.22-1.131-.33-1.672,2.1-20.877-10.493-45.368-14.448-49.764-4.1-4.556-6.618-10.814-7.57-13.177-.16-.391-.31-.761-.36-.851l.911-.511c.08.14.18.4.421,1,.931,2.313,3.4,8.451,7.379,12.856C153.018,88.275,164.6,112.886,162.68,133.172Z" transform="translate(0.178 0.088)"/><rect class="g" width="313.56" height="116.419" rx="18.68" transform="translate(152.255 8.171)"/><rect class="h" width="117.56" height="3.935" transform="translate(168.676 260.693)"/><rect class="i" width="87.311" height="3.935" transform="translate(168.676 242.34)"/><rect class="j" width="94.34" height="3.935" transform="translate(168.676 251.511)"/><rect class="k" width="61.218" height="3.935" transform="translate(168.676 260.693)"/><rect class="g" width="197.052" height="180.44" rx="13.86" transform="translate(96.744 130.907)"/><path class="l" d="M169.619,185.367a27.725,27.725,0,0,0-8.13-30.449,27.184,27.184,0,0,0-6.909-4.3c-.561-.25-1.141-.481-1.722-.691a27.715,27.715,0,1,0,16.761,35.435ZM136.526,195.6a20.783,20.783,0,1,1,14.018-39.13c.441.15.871.33,1.292.511a20.777,20.777,0,0,1-15.29,38.619Z" transform="translate(0.148 0.19)"/><path class="m" d="M137.327,156.2l-2.063-6.628A27.755,27.755,0,0,0,115.81,175.2l6.939.21A20.756,20.756,0,0,1,137.327,156.2Z" transform="translate(0.148 0.191)"/><path class="n" d="M151.791,157.011l2.764-6.358c-.561-.25-1.141-.481-1.722-.691a27.675,27.675,0,0,0-17.592-.36l2.063,6.628a20.716,20.716,0,0,1,13.2.27A7.068,7.068,0,0,1,151.791,157.011Z" transform="translate(0.173 0.19)"/><path class="o" d="M161.442,154.915a27.185,27.185,0,0,0-6.909-4.3l-2.764,6.388a20.757,20.757,0,0,1,5.177,3.224Z" transform="translate(0.194 0.193)"/><rect class="o" width="9.622" height="32.942" transform="translate(248.378 241.829)"/><rect class="o" width="9.622" height="23.71" transform="translate(234.069 251.071)"/><rect class="o" width="9.622" height="48.222" transform="translate(262.245 226.559)"/><path class="o" d="M270.086,202.211l-.17-1.041-25.392,4.155-8.22,17.542-27.375,1.862-8.861,13.077-20.927-.521-.03,1.051,21.507.531,8.891-13.127,27.485-1.862,8.251-17.6Z" transform="translate(0.229 0.257)"/><path class="n" d="M239,158.368h27.365a3.124,3.124,0,0,0,3.124-3.124h0a3.134,3.134,0,0,0-3.124-3.134H239a3.134,3.134,0,0,0-3.124,3.134h0A3.124,3.124,0,0,0,239,158.368Z" transform="translate(0.302 0.195)"/><path class="o" d="M239,169.268h27.365a3.134,3.134,0,0,0,3.124-3.134h0a3.124,3.124,0,0,0-3.124-3.124H239a3.124,3.124,0,0,0-3.124,3.124h0A3.134,3.134,0,0,0,239,169.268Z" transform="translate(0.302 0.209)"/><path class="o" d="M239,180.158h27.365a3.124,3.124,0,0,0,3.124-3.124h0a3.124,3.124,0,0,0-3.124-3.124H239a3.124,3.124,0,0,0-3.124,3.124h0A3.124,3.124,0,0,0,239,180.158Z" transform="translate(0.302 0.223)"/><path class="o" d="M189.55,163.771H173.9v-.6h15.4l8.24-8.231h10.093v.6h-9.843Z" transform="translate(0.223 0.198)"/><path class="o" d="M204.374,191.069H184.238l-6.518-6.528.421-.421,6.348,6.348h19.885Z" transform="translate(0.228 0.236)"/><rect class="n" width="20.867" height="2.563" transform="translate(199.255 159.113)"/><rect class="n" width="16.801" height="2.563" transform="translate(192.887 185.227)"/><path class="p" d="M52.567,197.24c5.257-2.513,10.493,14.218,10.493,14.218,8.931,11.815,21.417-3.9,20.2,13.758-2.133,30.889,35.555,9.712,18.173,41.964s15.35,18.233,4.546,44.236,3.194,57.073-13.017,44.277c0,0-14.318-31.4-29.037-41.113s8.751-21.237,4.105-34.474c-6.709-19.154-22.879-18.4-11.214-39.05S34.694,205.791,52.567,197.24Z" transform="translate(0.061 0.252)"/><path class="h" d="M98.038,343.836c-7.009-4.956-15.3-39.5-15.79-60.077-.25-10.533-3.364-14.929-6.118-18.794-2.623-3.7-4.9-6.909-3.575-14.248,2.523-14.018-4.115-20.1-4.185-20.146l.771-.881c.3.26,7.219,6.508,4.566,21.227-1.242,6.869.8,9.732,3.374,13.367,2.7,3.815,6.068,8.551,6.328,19.455.531,22.078,9.012,54.69,15.3,59.145Z" transform="translate(0.088 0.294)"/><path class="q" d="M100.641,346.338a14.914,14.914,0,0,1-3-.33,6.478,6.478,0,0,1-5.3-4.255c-1.9-5.437,2.5-14.258,6.078-18.514a27.145,27.145,0,0,0,5.4-17.512c-.11-1.7-.28-3.274-.441-4.656-.451-4.005-.771-6.909,1-8.841,1.512-1.7,4.446-2.443,9.793-2.473,9.382,0,13.1-3.925,16.02-7.009a16.772,16.772,0,0,1,3.915-3.374h0c4.676-2.553,9.622-2.924,11.775-.891,1,1,1.882,2.864.19,6.388a24.542,24.542,0,0,1-5.157,6.919c-2.163,2.2-3.595,3.665-2.854,6.578.18.681.38,1.372.581,2.063,1.442,4.946,3.084,10.554-5.377,14.348-1.8.811-3.434,1.452-4.876,2-5.908,2.313-9.482,3.715-13.507,12.216-.781,1.642-1.462,3.2-2.133,4.716C109.6,340.891,107.2,346.338,100.641,346.338Zm34.043-65.974a16.122,16.122,0,0,0-3.635,3.154c-3.134,3.284-7.009,7.359-16.9,7.41-4.916,0-7.67.661-8.931,2.073s-1.081,4.235-.661,7.94c.16,1.4.33,3,.441,4.716A27.845,27.845,0,0,1,99.33,323.99c-3.534,4.205-7.54,12.586-5.867,17.382a5.387,5.387,0,0,0,4.426,3.494c8.01,1.612,10.173-3.374,13.818-11.635.671-1.522,1.362-3.084,2.143-4.746,4.225-8.911,8.16-10.463,14.128-12.806,1.432-.561,3.054-1.192,4.826-2,7.54-3.384,6.178-8.01,4.736-12.967-.2-.7-.411-1.4-.581-2.093-.911-3.555.881-5.377,3.144-7.69a23.511,23.511,0,0,0,4.936-6.6c.761-1.6,1.392-3.775.06-5.006-1.762-1.662-6.238-1.2-10.413,1.071Z" transform="translate(0.118 0.354)"/><path class="r" d="M97.781,353.085l-1.161-.06c.06-1.1,1.522-26.874,11.875-34.424,11.354-8.271,14.939-17.172,16.641-23.139,2-7.009,12.236-8.911,12.666-9.012l.21,1.152c-.1,0-9.953,1.832-11.755,8.16-1.752,6.138-5.427,15.28-17.022,23.76C99.273,326.741,97.791,352.795,97.781,353.085Z" transform="translate(0.124 0.366)"/><path class="s" d="M121.471,223.22c-7.359-2.523-5.827,11.655-8.941,22.148S78,249.945,91.162,276.218,74.451,285,83.392,307.929s.771,47.441,10.483,41.233,5.457-35.1,15.56-38.529,11.755-7.439,1.752-16.761,26.213-18.584,17.272-37.408S129.962,226.134,121.471,223.22Z" transform="translate(0.105 0.285)"/><path class="h" d="M98.366,347.987c-.921-3.925-8.821-38.459-1.452-42.634,6.5-3.675,6.338-18.023,5.327-31.5-.9-11.965,14.468-17.552,15.119-17.793l.39,1.1c-.15,0-15.179,5.527-14.348,16.6,1,13.878,1.151,28.606-5.908,32.612-5.6,3.164-.451,30.919,2,41.353Z" transform="translate(0.12 0.328)"/><path class="t" d="M115.127,335.59l-10.5,39.851H81.143L70.64,335.59Z" transform="translate(0.091 0.429)"/><path class="u" d="M115.127,335.59s-23.1,4.346-23.1,39.851H81.143L70.65,335.59Z" transform="translate(0.091 0.429)"/><rect class="v" width="33.092" height="1.963" transform="translate(147.809 284.253)"/><rect class="w" width="2.904" height="89.334" transform="translate(155.148 380.666) rotate(180)"/><rect class="x" width="22.999" height="2.804" transform="translate(175.725 283.702)"/><rect class="y" width="8.711" height="26.454" transform="translate(182.864 259.762)"/><rect class="z" width="127.443" height="5.076" transform="translate(135.944 286.256)"/><path class="aa" d="M111.353,255.191s-1.342,19.545,2.423,21.848c2.393,1.472,11.935,6.408,11.645,7.339s-5.377,8.251-5.377,8.251-18.323-12.075-18.914-15.88.9-28.617,3.414-29.758c1.892-.861,2.884-.15,5.267,1.612C113.146,251.126,111.353,255.191,111.353,255.191Z" transform="translate(0.13 0.315)"/><path class="ab" d="M133.86,368s-.561,3.955-.641,4.546-6.338-.35-6.338-.35l-.5-4.706S133.079,367.44,133.86,368Z" transform="translate(0.162 0.47)"/><path class="ac" d="M133.29,372a16.721,16.721,0,0,0,3.9,3.414c1.922,1,4.946,1.452,6.078,2.533.821.771,3,4.115-5.006,4.005s-11.815.481-12.676-.811,1.242-9.452,1.242-9.452S128.734,372.451,133.29,372Z" transform="translate(0.161 0.475)"/><path class="ab" d="M174.01,368s-.571,4.005-.641,4.556-6.338-.35-6.338-.35l-.511-4.706S173.179,367.48,174.01,368Z" transform="translate(0.213 0.47)"/><path class="ac" d="M173.39,372.08a16.86,16.86,0,0,0,3.915,3.414c1.912,1,9.012,1.892,10.123,3,.821.771,2.183,3.895-9.011,3.6-8.01-.21-11.825.471-12.676-.811s1.232-9.452,1.232-9.452S168.724,372.531,173.39,372.08Z" transform="translate(0.212 0.475)"/><path class="ac" d="M113.677,299.77s22.779,3.855,27.926,4.656,33.042,7.76,36.547,9.873c2.774,1.682-1.462,42.134-2.453,57.563H164.682l-.8-46.289c-13.187.33-22.6-3.084-32.2-1.632s-17.612,3.534-23.72-4.656C108,319.285,107.77,301.552,113.677,299.77Z" transform="translate(0.138 0.383)"/><path class="ac" d="M136.142,371.9l-10.714-.661-1-45.668a64.981,64.981,0,0,1-12.226-.781l-8.641-20.1c7.58,1.512,31.861,7.64,35.095,9.6C141.4,316.014,137.123,356.456,136.142,371.9Z" transform="translate(0.133 0.39)"/><path class="ad" d="M124.147,214.471s8.351-2.313,11.545,4.175,1.742,18.774-2.473,19.925-10.263-.17-12.015-4.205-3.144-9.772-2.723-13.487S121.935,215.352,124.147,214.471Z" transform="translate(0.152 0.274)"/><path class="ad" d="M131.014,237.257s-.09,4.936.451,6.008-11.625.781-11.625.781,1.912-5.918.831-10.964S131.014,237.257,131.014,237.257Z" transform="translate(0.154 0.296)"/><path class="ae" d="M120,231.223s.651,1.322,3.8,1.1,7.309-4.005,8.641-4.346,1.422-1.1,1.422-1.1l.7,1.252,1.372.21s-.931-3.815,1.1-5.147-.911-12.155-11.184-9.542c0,0-7.85,1.432-7.95,5.807S118.511,228.9,120,231.223Z" transform="translate(0.151 0.273)"/><path class="v" d="M132.125,243.1s0-2-.941-2.2-9.572-1.382-10.684-.941l-.481,2.653S122.173,243.935,132.125,243.1Z" transform="translate(0.154 0.307)"/><path class="ad" d="M134.614,226c-.23-1.652-2.1-3.535-3.174-1s.731,6.3,1.932,6.1S134.935,228.2,134.614,226Z" transform="translate(0.168 0.286)"/><path class="af" d="M168.34,266.8Z" transform="translate(0.216 0.341)"/><path class="ae" d="M121.717,215.64s-10.183-.481-1.782,15.42Z" transform="translate(0.149 0.276)"/><path class="ag" d="M99.05,377.235l.751,2.133,32.011-9.923-1.532-4.315Z" transform="translate(0.127 0.467)"/><rect class="ag" width="3.635" height="34.804" transform="translate(129.396 333.596)"/><rect class="ah" width="21.457" height="2.053" transform="translate(120.494 331.744)"/><path class="ag" d="M163.382,377.236l-.761,2.133-32.011-9.923,1.412-4.586Z" transform="translate(0.167 0.466)"/><path class="ag" d="M140.823,379.138v2.473L130.61,369.446l1.412-4.586Z" transform="translate(0.167 0.466)"/><path class="ai" d="M166.338,380.184a3,3,0,1,1-3-3,3,3,0,0,1,3,3Z" transform="translate(0.205 0.482)"/><path class="ai" d="M141.078,380.184a3,3,0,1,1-3-3A3,3,0,0,1,141.078,380.184Z" transform="translate(0.173 0.482)"/><path class="ai" d="M102.008,380.184a3,3,0,1,1-3-3A3,3,0,0,1,102.008,380.184Z" transform="translate(0.123 0.482)"/><path class="v" d="M152.76,331.33H109.7a3.885,3.885,0,0,1-3.875-3.885h0a3.885,3.885,0,0,1,3.875-3.885H152.76a3.885,3.885,0,0,1,3.885,3.885h0A3.885,3.885,0,0,1,152.76,331.33Z" transform="translate(0.136 0.414)"/><rect class="w" width="2.904" height="89.334" transform="translate(244.172 291.332)"/><rect class="aj" width="75.206" height="53.058" rx="4.42" transform="translate(149.621 219.45)"/><rect class="ak" width="69.319" height="41.873" transform="translate(152.565 222.324)"/><path class="al" d="M218.527,267.8c0,1.192-1.252,2.153-2.794,2.153s-2.794-1-2.794-2.153,1.252-2.153,2.794-2.153S218.527,266.611,218.527,267.8Z" transform="translate(0.273 0.34)"/><path class="y" d="M202.555,286.009v-1s-1.322-5.868-10.714-5.868-9.2,6.819-9.2,6.819Z" transform="translate(0.234 0.357)"/><path class="ad" d="M182.533,280a9.232,9.232,0,0,0,2.784-.611c.751-.451,5.227-3.454,6.268-3s8.01,2.623,7.8,3.645-.891.921-1.382.741-5.567-1.252-6.008-1.071c0,0,5.006,1.822,5.006,3.144s-1,1.652-1.512,2.153-1,1.752-2.333,1.842-7.55-2.083-8.841-2.183-3.675.08-3.835-.13S182.533,280,182.533,280Z" transform="translate(0.231 0.353)"/><path class="aa" d="M145.494,245.884c-6.5-1.141-13.347-2.784-13.347-2.784l-12.125-.491s-11.124,2.443-15.5,4.426c-.411.18-.411,9.913-1.552,12.466l3.625,7.66s2.1,15.159,2.533,21.908c.2,3.094-.561,29.928-.561,29.928s1.081.541,9.352,1.452,28.917-.33,29.037-1.3-4.005-36.356-4.185-38.189c-.28-2.814.821-15.81.821-15.81,1.552,2.093,5.527,11.545,9.662,16.02,2.433,2.643,14.488,4.265,16.761,4.336,4.946.17,13.968,1.151,14.228.671.21-.29.791-8.01.22-8.2s-17.242-1.121-21.537-3.4c-1.572-.831-6.268-11.064-6.268-11.064S149.059,247.5,145.494,245.884Z" transform="translate(0.132 0.31)"/><rect class="v" width="35.055" height="48.552" rx="8.5" transform="translate(94.071 269.975)"/><path class="v" d="M122.783,329.427c-5.177,0-9.362-1.732-12.466-5.167-7.009-7.73-5.747-21.337-5.7-21.908a1.952,1.952,0,1,1,3.885.381c0,.16-1.131,12.486,4.706,18.924,2.363,2.6,5.5,3.865,9.572,3.865a2,2,0,0,1,0,3.905Z" transform="translate(0.134 0.384)"/><rect class="am" width="20.306" height="2.213" rx="0.63" transform="translate(157.482 225.658)"/><rect class="am" width="20.306" height="2.213" rx="0.63" transform="translate(157.482 230.404)"/><rect class="am" width="20.306" height="25.022" rx="2.13" transform="translate(157.482 235.841)"/><rect class="am" width="36.156" height="35.205" rx="3.37" transform="translate(181.883 225.658)"/><path class="o" d="M245.631,55.424A40.724,40.724,0,0,0,168.943,82.86c.31.861.641,1.7,1,2.533a40.722,40.722,0,0,0,75.687-29.968ZM217.6,97.889a30.479,30.479,0,0,1-38.279-16.561c-.27-.621-.521-1.262-.761-1.9a30.539,30.539,0,1,1,39.05,18.464Z" transform="translate(0.213 0.036)"/><path class="a" d="M178.142,60.04l-9.732-3A40.792,40.792,0,0,1,206.048,28.42l.3,10.193A30.6,30.6,0,0,0,178.142,60.04Z" transform="translate(0.216 0.036)"/><path class="an" d="M179.3,81.291l-9.352,4.065c-.36-.831-.691-1.672-1-2.533A40.532,40.532,0,0,1,168.412,57l9.732,3a30.429,30.429,0,0,0,.39,19.385C178.776,80.029,179.016,80.67,179.3,81.291Z" transform="translate(0.213 0.073)"/><path class="ao" d="M176.258,95.468a40.7,40.7,0,0,1-6.318-10.143l9.352-4.065a30.329,30.329,0,0,0,4.726,7.6Z" transform="translate(0.218 0.104)"/><rect class="ap" width="7.209" height="51.366" transform="translate(261.945 57.954)"/><rect class="ap" width="7.209" height="40.922" transform="translate(279.858 68.387)"/><rect class="ap" width="7.209" height="48.602" transform="translate(297.761 60.708)"/><rect class="ap" width="7.209" height="33.443" transform="translate(315.663 75.877)"/><rect class="ap" width="7.209" height="47.03" transform="translate(333.576 62.29)"/><rect class="ap" width="7.209" height="54.119" transform="translate(351.479 55.201)"/><rect class="ap" width="7.209" height="57.073" transform="translate(369.382 52.237)"/><rect class="aq" width="7.209" height="32.221" transform="translate(261.945 77.089)"/><rect class="aq" width="7.209" height="25.673" transform="translate(279.858 83.637)"/><rect class="aq" width="7.209" height="30.499" transform="translate(297.761 78.821)"/><rect class="aq" width="7.209" height="20.987" transform="translate(315.663 88.333)"/><rect class="aq" width="7.209" height="29.508" transform="translate(333.576 79.812)"/><rect class="aq" width="7.209" height="33.953" transform="translate(351.479 75.366)"/><rect class="aq" width="7.209" height="35.806" transform="translate(369.382 73.514)"/><rect class="ap" width="7.209" height="51.366" transform="translate(389.137 57.954)"/><rect class="ap" width="7.209" height="40.922" transform="translate(407.05 68.387)"/><rect class="ap" width="7.209" height="48.602" transform="translate(424.953 60.708)"/><rect class="ap" width="7.209" height="33.443" transform="translate(442.856 75.877)"/><rect class="aq" width="7.209" height="32.221" transform="translate(389.137 77.089)"/><rect class="aq" width="7.209" height="25.673" transform="translate(407.05 83.637)"/><rect class="aq" width="7.209" height="30.499" transform="translate(424.953 78.821)"/><rect class="aq" width="7.209" height="20.987" transform="translate(442.856 88.333)"/><rect class="a" width="192.115" height="7.339" rx="2.74" transform="translate(450.065 32.582) rotate(180)"/><rect class="ar" width="192.115" height="7.339" rx="2.74" transform="translate(450.065 45.378) rotate(180)"/><path class="g" d="M306.111,130.87H376.1a8.741,8.741,0,0,1,8.741,8.741V270.6a8.741,8.741,0,0,1-8.741,8.741H306.121a8.741,8.741,0,0,1-8.741-8.741v-131A8.731,8.731,0,0,1,306.111,130.87Z" transform="translate(0.381 0.167)"/><rect class="o" width="0.38" height="49.083" transform="translate(303.858 219.591)"/><rect class="o" width="0.38" height="49.083" transform="translate(322.462 219.591)"/><rect class="o" width="0.38" height="49.083" transform="translate(341.066 219.591)"/><rect class="o" width="0.38" height="49.083" transform="translate(359.67 219.591)"/><rect class="o" width="0.38" height="49.083" transform="translate(378.283 219.591)"/><path class="s" d="M303.66,248.493s7.58,6.378,14.909-1.182,15.78-10.093,23.25-3.725,10.373-2.373,17.853-9.532,7.349-11.234,18.414-11.234v45.568H303.66Z" transform="translate(0.389 0.285)"/><rect class="o" width="4.626" height="1.782" transform="translate(322.652 215.505)"/><rect class="o" width="6.288" height="1.782" transform="translate(303.858 215.505)"/><rect class="o" width="5.697" height="1.782" transform="translate(341.256 215.505)"/><rect class="o" width="5.697" height="1.782" transform="translate(359.67 215.505)"/><rect class="o" width="5.697" height="1.782" transform="translate(372.776 215.505)"/><rect class="as" width="24.882" height="3.144" transform="translate(350.338 183.234)"/><rect class="at" width="22.839" height="3.144" transform="translate(350.338 196.421)"/><rect class="as" width="19.765" height="3.144" transform="translate(350.338 189.833)"/><path class="o" d="M327.621,178.516a4.356,4.356,0,1,1-4.346-4.346A4.356,4.356,0,0,1,327.621,178.516Z" transform="translate(0.408 0.223)"/><path class="o" d="M331.12,192.69v8.271a19.115,19.115,0,0,1-15.77,0V192.69a7.89,7.89,0,1,1,15.77,0Z" transform="translate(0.404 0.236)"/><path class="au" d="M323.255,203.21a19.594,19.594,0,1,1,8.1-1.752,19.425,19.425,0,0,1-8.1,1.752Zm0-38.169a14.976,14.976,0,1,0,0-.04Z" transform="translate(0.389 0.21)"/><path class="o" d="M362.075,175.34a11.845,11.845,0,1,1,11.835-11.835,11.845,11.845,0,0,1-11.835,11.835Zm0-21.307a3.926,3.926,0,1,0,0-.03Z" transform="translate(0.448 0.194)"/><rect class="o" width="17.843" height="2.844" transform="translate(322.752 140.099)"/><rect class="o" width="15.209" height="2.844" transform="translate(325.386 147.428)"/><rect class="o" width="24.451" height="2.844" transform="translate(316.144 154.768)"/><rect class="g" width="59.286" height="42.264" rx="2.2" transform="translate(390.789 130.727)"/><rect class="av" width="20.686" height="3.014" rx="1.23" transform="translate(395.575 141.871)"/><rect class="av" width="16.211" height="3.014" rx="1.09" transform="translate(395.575 135.053)"/><path class="o" d="M395.07,166.98l11.985-11.985,3.585,3.585L423.8,145.412l5.837,5.847,15.28-15.28v31Z" transform="translate(0.505 0.174)"/><path class="aw" d="M444.773,166.97V143.2l-15.75,15.76-5.647-5.647-9.412,9.4-7.129-2.834L395.07,166.97Z" transform="translate(0.505 0.183)"/><path class="ax" d="M409,373.633s-4.416,6.208-3.8,7.189,5.247,1.131,8.08,0,2.894-8.391,4.175-11.525c.531-1.3-.611-5.167-2.223-5.447a6.547,6.547,0,0,0-3.364.541S413.511,368.8,409,373.633Z" transform="translate(0.518 0.465)"/><path class="ad" d="M411.805,364.341a30.3,30.3,0,0,0-1.272,5.167c-.28,2.093-3.154,6.538-3,7.1s3.765,1.071,5.257-.37,2.433-5.667,2.754-8.19a21.637,21.637,0,0,1,.691-3.5S413.217,362.8,411.805,364.341Z" transform="translate(0.521 0.465)"/><path class="ax" d="M447.385,373.743s-4.255,6.1-3.655,7.079,5.257,1.131,8.09,0,2.894-8.391,4.175-11.525c.531-1.3-.611-5.167-2.223-5.447a7.009,7.009,0,0,0-3.5.6S451.921,368.9,447.385,373.743Z" transform="translate(0.568 0.465)"/><path class="ad" d="M450.265,364.451a44.6,44.6,0,0,1-.871,4.916c-.541,2-3.444,6.679-3.3,7.239s3.775,1.071,5.257-.37,2.623-5.647,2.753-8.19a14.019,14.019,0,0,0-.33-4.2A3.194,3.194,0,0,0,450.265,364.451Z" transform="translate(0.571 0.465)"/><path class="ad" d="M429.022,263.537s-3.785,18.4-4.656,23.029-3.314,27.085-3.575,30.9-3.955,18.193-3.785,19.555-5.477,28.747-5.477,28.747a3.294,3.294,0,0,0,4.005.15c1.051-.761,12.406-25.633,12.406-32.451,0-9.422,6.679-21.718,7.54-23.83,8.01-19.575,6.418-25.563,7.47-26.834s1.131.791,1.742,3.6,1.912,27.175,2.7,30.259.17,13.537.611,18.814,2.343,29.107,2.343,29.107,1.482,2.423,3.554.06c.451-.5,3.585-26.554,3.675-32.822s.18-14.919.35-17.633c1.612-25.983,5.577-29.688-.671-48.061C445.523,231.686,429.022,263.537,429.022,263.537Z" transform="translate(0.526 0.32)"/><path class="ay" d="M454.472,258.38s10.8,15.78,6.158,49.343c0,0-25.623,3.635-39.35-4.205,0,0,5.677-34.6,7.73-39.991S454.472,258.38,454.472,258.38Z" transform="translate(0.539 0.33)"/><path class="ax" d="M417.521,368.75v6.5h-.8v-5.026Z" transform="translate(0.533 0.472)"/><path class="ax" d="M456.1,368.75v6.5h-.811v-5.026Z" transform="translate(0.582 0.472)"/><path class="ad" d="M441.647,188.523s-7.229,7.289-4.766,16.671,6.418,9.432,10.784,5.4,6.939-8.281,7.51-13.017S448.255,181.994,441.647,188.523Z" transform="translate(0.558 0.239)"/><path class="ad" d="M440.23,219.8a43.513,43.513,0,0,0,1.822-5.217c.13-.491.26-1,.36-1.482a9.5,9.5,0,0,0,.12-4.626c-1.151-3.414,7.239-1.051,7.239-1.051s-1.622,9.011,0,12.015S440.23,219.8,440.23,219.8Z" transform="translate(0.563 0.264)"/><path class="az" d="M461.51,224.079c-1.322-2.643-2.3-3.484-4.856-4.3-1.432-.451-7.81-2.113-7.81-2.113l-7.66-.28a68.927,68.927,0,0,0-9.362,2.293c-4.085,1.422-9.442,9.162-9.442,9.162s7.389,17.352,8.8,22.339.471,12.686.471,12.686c8.861,4.816,23.029-.471,23.029-.471a28.506,28.506,0,0,1-.561-11.665c.07-.38.15-.741.23-1.081s.18-.751.3-1.252v-.06c5.637.571,10.914.811,11.014-.32C466.386,243.924,463.322,227.693,461.51,224.079Zm-3.9,19.785a7.074,7.074,0,0,1-1.222-.09c.631-1.742,1.322-3.284,1.322-3.284C458.106,241.6,459.628,244.164,457.605,243.864Z" transform="translate(0.54 0.278)"/><path class="ba" d="M444.01,193.77s3.454,6.288,5.607,8.541,1.9,4.005,1.9,4.005,8.371-10.333,2.393-16.571-13.677-3.725-15.93,1.722-1.432,12.115-1.432,12.115S436.62,197.224,444.01,193.77Z" transform="translate(0.558 0.238)"/><path class="ba" d="M446.28,187.189s-.841-4.606,6.388-6.438,10.463,6.488,9.572,11.565-7.059,17.943-3.715,19.625S463.182,210,463.182,210s-1,6.338-5.707,4.866-4.005-11.755-3.324-15.85S446.28,187.189,446.28,187.189Z" transform="translate(0.571 0.231)"/><path class="bb" d="M448.608,209.65a8.831,8.831,0,0,1-6.558,4.926c.13-.491.26-1,.36-1.482C442.41,213.094,445,213.615,448.608,209.65Z" transform="translate(0.565 0.268)"/><path class="bc" d="M457.562,240.531s-.34.721-1.292,3.585a57.483,57.483,0,0,1-.461-12.226,30.43,30.43,0,0,0,1.752,8.641Z" transform="translate(0.583 0.297)"/><path class="az" d="M447.4,186.21s5.127,1,7.69,5.157c0,0-.521-3.775-3.074-4.866a6.538,6.538,0,0,0-4.616-.29Z" transform="translate(0.572 0.238)"/><path class="bc" d="M454.658,249.361c-.12.5-.23.941-.3,1.252s-.16.7-.23,1.081c-3.174-1.722-5.447-3.074-5.447-3.074C449.531,248.81,454.658,249.361,454.658,249.361Z" transform="translate(0.574 0.318)"/><path class="ad" d="M449.252,217.791l-9.012,7.349.931-7.75S446.418,216.259,449.252,217.791Z" transform="translate(0.563 0.278)"/><path class="bd" d="M442.833,223.89l-2.6,1.252,8.861-8.781Z" transform="translate(0.563 0.277)"/><path class="be" d="M455.2,248.77c-1.242,5.147,3.354,16.721,3.354,16.721l-9.1,2.844a2.333,2.333,0,0,1-3-1.732c-1.212-5.667-4.075-19.615-4.416-27.365-.431-9.893,6.769-21.568,6.769-21.568,12.806,2.2,9.292,21.568,9.292,21.568s-.461,1.222-1.081,3.124h0c-.16.481-.33,1-.5,1.562C456.1,245.355,455.617,247.038,455.2,248.77Z" transform="translate(0.565 0.278)"/><path class="be" d="M440.275,217.811l.16-.421s-6.558,1-9.893,2.663-9.712,10.263-9.712,10.263l8.351,11.014c0,8.461-1.362,23.51-1.362,23.51l3.815,2.2a1.552,1.552,0,0,0,2.323-1.322c.11-5.717.371-19.3.5-25.893.18-8.461,6.218-22.158,6.218-22.158Z" transform="translate(0.538 0.278)"/><path class="ad" d="M428.38,257.459a69.69,69.69,0,0,0,7.269,0c1-.24,7.509-3.074,7.9-5.867s-15.169,2.5-15.169,2.5Z" transform="translate(0.548 0.321)"/><path class="bf" d="M447.9,248.734,422.38,245.74l11.525,9.392Z" transform="translate(0.54 0.314)"/><path class="af" d="M433.891,255.128l14-4.776V248.73l-14.468,4.636Z" transform="translate(0.554 0.318)"/><path class="ad" d="M440.483,244.05a21.946,21.946,0,0,1-3.294-.24,6.659,6.659,0,0,0-3.775.581c-.581.511-2.423,4.1-2.773,4.306s.18.731.791.471c0,0,.571,1.572,1.953,1s2.333-1.862,3.054-2.093,4.956-1.362,4.956-1.362S441.574,243.67,440.483,244.05Z" transform="translate(0.551 0.312)"/><path class="bg" d="M441.649,215.97l-4.866,7.69-2.343,1.482,5.467-7.67Z" transform="translate(0.556 0.276)"/><path class="bd" d="M436.78,223.66l3.454,1.482.931-7.75.481-1.422Z" transform="translate(0.559 0.276)"/><path class="be" d="M429.174,253.866a19.548,19.548,0,0,0,0,3.935s-15.75-1.582-17.172-3.795a9.492,9.492,0,0,1-1.422-4.876Z" transform="translate(0.525 0.319)"/><path class="bh" d="M433.936,255.159l-7.44-27.685L398.19,224.49l7.76,25.473Z" transform="translate(0.509 0.287)"/><path class="bg" d="M449.088,216.36l-6.258,7.53,3.424,3.054,3.695-9.021Z" transform="translate(0.566 0.277)"/><path class="bi" d="M457.236,241.7l-.21.631c-.16.481-.33,1-.5,1.562-1.2.38-11.665-.391-11.665-.391S453.611,241.45,457.236,241.7Z" transform="translate(0.569 0.309)"/><path class="be" d="M456.631,243.723c-1.682-.13-4.446-.31-6.7-.32-3.514,0-9.522.38-9.522.38l.711,3.755s10.644,1.722,16.461,2.133h0s7.67.881,8.241-.26-.19-8.5-1.432-15.119-2.533-10.433-4.055-12.486-9.592-3.635-9.592-3.635l6.839,22.379a9.223,9.223,0,0,1,.931,2.854c0,.26-.2.38-.441.431l-1.071-.09Z" transform="translate(0.563 0.279)"/></svg>