<?xml version="1.0" encoding="utf-8"?>
<!-- Generator: Adobe Illustrator 24.0.2, SVG Export Plug-In . SVG Version: 6.00 Build 0)  -->
<svg version="1.1" id="Layer_1" xmlns="http://www.w3.org/2000/svg" xmlns:xlink="http://www.w3.org/1999/xlink" x="0px" y="0px"
	 viewBox="0 0 512 512" style="enable-background:new 0 0 512 512;" xml:space="preserve">
<style type="text/css">
	.st0{fill:#B2BEDB;}
</style>
<g>
	<g>
		<g>
			<g>
				<path class="st0" d="M41,223.3c2.7,1.1,5.8,1.1,8.4-0.2l83.2-37.8c5.3-2.6,7.6-9,5-14.3c-2.5-5.1-8.5-7.5-13.7-5.1l-58.3,26.5
					C93.5,109.1,170.9,53.5,260.1,53.5c93.5,0,175.2,62.5,198.8,151.9c1.5,5.6,7.4,9.1,13,7.6s9.1-7.4,7.6-13
					c-26-98.7-116.2-167.8-219.3-167.8c-98.4,0-184,61.4-214.9,153.3l-24.5-61.3c-1.8-5.5-7.9-8.6-13.4-6.8
					c-5.5,1.8-8.6,7.9-6.8,13.4c0.1,0.4,0.3,0.9,0.5,1.3l34,85.3C36.1,220,38.2,222.2,41,223.3z"/>
				<path class="st0" d="M511.4,380.6c-0.1-0.2-0.2-0.4-0.2-0.6l-34-85.3c-1.1-2.7-3.2-4.9-6-6c-2.7-1.1-5.8-1-8.4,0.2l-83.2,37.8
					c-5.4,2.2-8,8.5-5.8,14c2.2,5.4,8.5,8,14,5.8c0.2-0.1,0.4-0.2,0.6-0.3l58.3-26.5c-28,83.2-105.6,138.9-194.7,138.9
					c-93.5,0-175.2-62.5-198.8-151.9c-1.5-5.6-7.4-9.1-13-7.6s-9.1,7.4-7.6,13c25.9,98.8,116.2,167.8,219.3,167.8
					c98.4,0,183.8-61.4,214.9-153.3l24.5,61.3c2,5.5,8.1,8.4,13.6,6.4C510.5,392.2,513.4,386.1,511.4,380.6z"/>
			</g>
		</g>
	</g>
</g>
</svg>
