<?xml version="1.0" encoding="utf-8"?>
<!-- Generator: Adobe Illustrator 24.0.2, SVG Export Plug-In . SVG Version: 6.00 Build 0)  -->
<svg version="1.1" id="Layer_1" xmlns="http://www.w3.org/2000/svg" xmlns:xlink="http://www.w3.org/1999/xlink" x="0px" y="0px"
	 viewBox="0 0 1000 1000" style="enable-background:new 0 0 1000 1000;" xml:space="preserve">
<style type="text/css">
	.st0{fill:#1F448F;}
</style>
<g>
	<g>
		<path class="st0" d="M500,17.13c-223.15,0-410.94,151.37-466.31,357.03H328.3h6.52h113.13c26.59,0,49.42,2.28,68.5,6.85
			c19.08,4.57,34.73,10.97,46.93,19.2c12.21,8.24,21.2,18.08,26.99,29.53c5.79,11.45,8.68,24.07,8.68,37.84
			c0,10.93-1.95,21.26-5.83,30.99c-3.89,9.73-9.5,18.57-16.82,26.5c-7.33,7.94-16.37,14.9-27.13,20.89
			c-10.76,5.99-23.02,10.71-36.76,14.15c4.7,2.25,9.04,4.91,13.02,7.97c3.98,3.07,7.6,6.7,10.85,10.89l58.9,71.92l131.55-276.73
			h74.34l146.16,308.01c22.92-56.21,35.55-117.72,35.55-182.17C982.87,233.32,766.68,17.13,500,17.13z M771.32,451.19
			c-2.54-6.59-5.07-13.7-7.6-21.33c-2.35,7.64-4.79,14.79-7.33,21.45c-2.53,6.66-4.98,12.46-7.32,17.4L701.6,576.28h124.8
			l-47.75-108.02C776.3,463.47,773.85,457.78,771.32,451.19z M482.81,524.41c10.22-2.84,18.63-6.77,25.23-11.79
			c6.6-5.01,11.53-10.96,14.79-17.85c3.25-6.88,4.88-14.45,4.88-22.68c0-16.47-6.56-29.12-19.67-37.95
			c-13.12-8.83-33.14-13.25-60.09-13.25h-46.66v107.8h45.58C460.6,528.67,472.59,527.25,482.81,524.41z M883.37,694.97
			c-3.98-2.62-6.96-5.88-8.95-9.77l-29.3-66.25H682.61l-29.3,66.25c-1.45,3.45-4.25,6.59-8.41,9.43c-3.01,2.06-6.54,3.36-10.58,3.93
			l0.28,0.34h-5.16h-56.97h-3.79c-12.48,0-21.53-4.04-27.13-12.13L459.07,582.8c-3.08-3.89-6.47-6.66-10.17-8.31
			c-3.71-1.65-9.18-2.47-16.41-2.47h-31.2V698.9H328.3V423.8H216.53V698.9h-72.98V423.8H25.27v-12.5
			c-5.34,28.75-8.14,58.4-8.14,88.7c0,266.68,216.19,482.87,482.87,482.87c195.77,0,364.33-116.51,440.13-283.97h-41.3
			C892.5,698.9,887.35,697.59,883.37,694.97z"/>
	</g>
</g>
</svg>
