<svg xmlns="http://www.w3.org/2000/svg" width="118.767" height="116.789" viewBox="0 0 118.767 116.789"><g transform="translate(0 0.023)"><path d="M29.943,12.6A25.986,25.986,0,0,0,4.188,38.534a2.106,2.106,0,0,1-4.212,0A30.174,30.174,0,0,1,29.954,8.392l2.8,2.1Zm-1.312,7.985L39.87,12.166a2.1,2.1,0,0,0,0-3.363L28.644.4a2.1,2.1,0,0,0-2.53,3.365L35.1,10.488,26.106,17.22a2.1,2.1,0,1,0,2.525,3.362Z" transform="translate(79.617 0) rotate(16)"/><g transform="translate(0 8.328)"><path d="M88.266,38.113H31.881l26.79-26.727a1.808,1.808,0,0,0,0-2.562L53.534,3.7a5.588,5.588,0,0,0-7.707,0L41.679,7.839,44.247,10.4,48.4,6.262a1.862,1.862,0,0,1,2.568,0l3.854,3.843L11.148,53.672,7.3,49.826a1.808,1.808,0,0,1,0-2.562L40.614,14.025l-2.568-2.562-2.494,2.488-2.568-2.562a5.463,5.463,0,0,0-7.707,0L12.433,24.2a5.433,5.433,0,0,0,0,7.689L15,34.453,4.726,44.7a5.427,5.427,0,0,0,0,7.689l5.137,5.126a1.833,1.833,0,0,0,1.286.527,1.814,1.814,0,0,0,1.284-.531l9.66-9.637,7.649,57.992a5.461,5.461,0,0,0,5.4,4.726H76a5.464,5.464,0,0,0,5.4-4.728l6.276-47.587-3.6-.473L77.8,105.394a1.822,1.822,0,0,1-1.8,1.578H35.143a1.819,1.819,0,0,1-1.8-1.577L25.331,44.648l2.917-2.91H86.2l-1.164,8.825,3.6.473,1.435-10.873a1.813,1.813,0,0,0-1.8-2.049ZM15,29.326a1.812,1.812,0,0,1,0-2.564L27.847,13.949a1.825,1.825,0,0,1,2.57,0l2.568,2.562L17.573,31.887Z" transform="translate(-3.129 -2.159)"/><path d="M29,33.436V73.3a5.449,5.449,0,0,0,10.9,0V33.436a5.449,5.449,0,0,0-10.9,0Zm7.266,0V73.3a1.816,1.816,0,0,1-3.633,0V33.436a1.816,1.816,0,0,1,3.633,0Z" transform="translate(17.992 18.827)"/><path d="M21,33.436V73.3a5.449,5.449,0,0,0,10.9,0V33.436a5.449,5.449,0,0,0-10.9,0Zm7.266,0V73.3a1.816,1.816,0,0,1-3.633,0V33.436a1.816,1.816,0,0,1,3.633,0Z" transform="translate(11.461 18.827)"/><path d="M37,33.436V73.3a5.449,5.449,0,0,0,10.9,0V33.436a5.449,5.449,0,0,0-10.9,0Zm7.266,0V73.3a1.816,1.816,0,0,1-3.633,0V33.436a1.816,1.816,0,0,1,3.633,0Z" transform="translate(24.524 18.827)"/><path d="M37.252,13.029l-4-1a1,1,0,0,0-1.043.37l-3,3.995a1,1,0,0,0,.353,1.493l4,2a1,1,0,0,0,.446.1h5.005a1,1,0,0,0,.93-1.369l-2-4.994a1,1,0,0,0-.687-.6Zm-3.01,4.964-2.72-1.356,1.885-2.507,2.862.714,1.263,3.149Z" transform="translate(25.802 7.573)"/><path d="M46.845,10.521,46.253,9.34a.618.618,0,0,0-.673-.328L42.5,9.628a.615.615,0,0,0-.5.6v1.231a.613.613,0,0,0,.019.15l.617,2.461a.616.616,0,0,0,.6.466.541.541,0,0,0,.077,0l4.935-.615a.615.615,0,0,0,.416-.98ZM43.7,13.245l-.466-1.859v-.65l2.126-.424.406.81a.616.616,0,0,0,.059.094l1.213,1.613Z" transform="translate(35.927 16.033)"/><path d="M44,2h2.7V4.693H44Z" transform="translate(31.1 2.941)"/><path d="M0,2.781,1.4,4.608a11.1,11.1,0,0,1,8.943-2.091L10.8.258A13.381,13.381,0,0,0,0,2.781Z" transform="matrix(-0.105, -0.995, 0.995, -0.105, 68.906, 13.037)"/><path d="M57,12h3.633v3.624H57Z" transform="translate(27.931 7.552)"/><path d="M48,7.81h2.291a3.437,3.437,0,0,1,3.437-3.429l-.108-2.25A5.606,5.606,0,0,0,48,7.81Z" transform="translate(33.504 0.963)"/></g></g></svg>